<svg width="81" height="76" viewBox="0 0 81 76" fill="none" xmlns="http://www.w3.org/2000/svg">
<path d="M18.5134 16.2949C18.1692 13.7565 18.2045 12.3332 18.5134 9.79486C19.1998 7.51793 19.7375 6.34352 21.5134 4.79486C22.7461 3.67048 23.6187 3.19112 25.4477 2.56217C28.1814 1.69858 29.714 1.93599 32.4477 2.56217C35.58 3.24946 36.7476 4.22886 38.5133 6.29486C39.6624 8.0188 40.1216 9.19862 40.5133 11.7949M6.01335 21.7949C4.51334 23.2949 3.08272 23.7603 2.51335 25.7949C1.94398 27.8295 1.72267 28.2949 2.51335 31.2949C3.30403 34.2948 6.47802 33.3094 8.5 34M8.5 34C6.5 38.7051 6.95786 42.1706 7.51335 46.2949C8.35129 49.8218 9.15426 51.7936 11.5134 55.2949C11.5134 55.2949 17.0134 59.2949 18.5134 61.2949C20.0134 63.2948 18.5134 66.7949 17.0134 68.7949C15.5133 70.7949 20.0134 72.2949 20.0134 72.2949C20.0134 72.2949 28.0134 75.2949 28.0134 73.7949C28.0133 72.2949 29.0134 69.2949 29.0134 69.2949C37.0187 70.6751 41.3758 70.3893 49.0133 68.7949C49.0133 68.7949 51.0133 72.2949 51.5133 73.7949C52.0134 75.2949 60.0133 72.2949 61.0133 70.7949C62.0133 69.2949 61.0133 65.7949 61.0133 65.7949C67.6885 60.0843 69.872 57.0419 72.0134 51.7949C72.0134 51.7949 76.0134 52.7948 77.5134 51.7949C79.0133 50.7949 79.0134 38.2949 77.5134 38.2949C76.0133 38.2949 72.0134 38.2949 72.0134 38.2949C69.342 29.5695 66.4195 26.1487 59.5133 21.7949C58.7347 19.4898 58.2979 18.1976 59.5133 14.2949C60.1028 12.8118 60.5141 11.9136 62 9.79486C59.4024 9.96558 58.5 10.1255 56.5133 11.7949C53.5381 14.2949 51.8094 15.5338 49.0133 19.2949C41.7886 17.8136 37.7381 17.7048 30.5134 19.2949C25.5081 20.3015 22.9314 21.2658 18.5134 23.2949C12.9016 26.9145 10.2745 28.4286 8.5 34Z" stroke="#00B9E4" stroke-width="3"/>
<circle cx="60" cy="35" r="3" fill="#00B9E4"/>
</svg>
