<svg width="330" height="330" viewBox="0 0 330 330" fill="none" xmlns="http://www.w3.org/2000/svg">
<path d="M130.969 1.67578C125.49 4.38281 122.332 9.66797 122.332 16.1133C122.332 22.623 125.684 27.7793 131.807 30.6797C142.893 35.9004 155.783 26.748 154.494 14.502C153.914 8.57227 149.918 3.09375 144.633 0.902344C141.023 -0.580077 134.836 -0.257812 130.969 1.67578ZM141.41 12.3105C143.537 13.9863 143.73 17.4023 141.797 19.3359C139.863 21.2695 136.447 21.0762 134.771 18.9492C132.645 16.2422 133.225 13.5352 136.318 11.7305C138.188 10.6348 139.477 10.7637 141.41 12.3105Z" fill="#00B9E4"/>
<path d="M95.3906 16.1133V21.9141H101.191H106.992V16.1133V10.3125H101.191H95.3906V16.1133Z" fill="#00B9E4"/>
<path d="M60.9082 27.9727C55.7519 30.1641 50.9824 35.0625 49.0488 40.2832C47.8242 43.4414 47.6309 45.0527 47.8242 49.0488C48.2754 57.3633 52.3359 63.4863 59.748 67.1602C63.4863 68.9648 64.582 69.2227 69.2227 69.2227C75.6035 69.2227 80.0508 67.418 84.3691 63.0996C88.623 58.8457 90.4922 54.334 90.4922 48.0176C90.5566 42.0234 88.752 37.3828 84.8848 33.0645C79.2773 26.877 68.8359 24.6855 60.9082 27.9727ZM74.3789 39.1875C77.2148 40.8633 78.7617 43.377 79.1484 46.9219C79.8574 54.7852 71.8652 60.3281 64.7109 56.9766C56.5898 53.1094 57.4277 41.4434 66.0645 38.3496C68.9004 37.3184 71.543 37.5762 74.3789 39.1875Z" fill="#00B9E4"/>
<path d="M106.348 58.6523V64.4531H111.826H117.305V58.6523V52.8516H111.826H106.348V58.6523Z" fill="#00B9E4"/>
<path d="M34.1602 80.1152C30.8086 81.2109 29.1328 82.6289 27.7148 85.4648C26.6191 87.5918 26.4258 89.2676 26.4258 98.0977V108.281L29.0039 113.438C31.2598 117.949 31.582 119.109 31.582 123.105V127.617H26.4258H21.2695V139.67V151.787L10.6348 165L0.0644531 178.213V239.443V300.674L11.7305 315.305L23.3965 330L79.8574 329.936H136.318L148.113 315.176L159.844 300.352V239.508V178.664L149.209 165.387L138.574 152.109V139.863V127.617H101.514H64.4531V122.783C64.4531 118.4 64.7109 117.434 67.0957 112.664L69.7383 107.443L69.4805 97.002C69.2871 86.7539 69.2871 86.5605 67.4824 84.2402C64.1953 79.9219 63.0352 79.6641 48.9844 79.4707C40.4121 79.3418 35.707 79.5996 34.1602 80.1152ZM58.0078 98.291C58.0078 105.703 58.0078 105.768 55.4297 110.859C52.9805 115.693 52.8516 116.273 52.8516 121.816V127.617H48.0176H43.1836V121.816C43.1836 116.209 43.0547 115.758 40.2832 110.215C37.3828 104.479 37.3828 104.414 37.3828 97.6465V90.8789H47.6953H58.0078V98.291ZM127.617 143.73V148.887H122.139H116.66V154.365V159.844H123.363H130.066L136.254 167.578L142.506 175.312H79.9219C19.4004 175.312 17.3379 175.248 18.1758 174.152C18.627 173.508 21.334 170.027 24.1699 166.418L29.3262 159.908L68.1914 159.844H106.992V154.365V148.887H69.6094H32.2266V143.73V138.574H79.9219H127.617V143.73ZM148.887 239.766V292.617H79.9219H10.957V239.766V186.914H79.9219H148.887V239.766ZM141.668 304.67C141.152 305.314 138.316 308.795 135.416 312.469L130.131 319.043H79.7285H29.3262L23.8477 312.146C20.8184 308.408 18.1113 304.928 17.8535 304.412C17.4023 303.703 27.8438 303.574 79.9863 303.574C139.605 303.574 142.57 303.639 141.668 304.67Z" fill="#00B9E4"/>
<path d="M42.5391 101.191V106.992H48.0176H53.4961V101.191V95.3906H48.0176H42.5391V101.191Z" fill="#00B9E4"/>
<path d="M38.6719 202.576C32.8066 204.187 28.5527 208.184 27.0703 213.404C26.6836 214.629 26.4258 226.102 26.4258 240.088V264.645L28.1016 267.996C29.0039 269.865 30.8086 272.25 32.0977 273.281C36.8027 277.213 36.9961 277.213 81.2754 277.02C119.561 276.826 121.623 276.762 124.008 275.602C127.23 273.99 130.26 270.961 131.871 267.738C133.031 265.354 133.096 263.678 133.096 239.443C133.096 214.307 133.031 213.598 131.742 211.084C129.809 207.539 127.23 205.025 123.75 203.414C120.914 202.061 120.012 202.061 81.2109 201.932C51.2402 201.803 40.8633 201.996 38.6719 202.576ZM120.334 214.758L121.816 216.111V239.379C121.816 262.324 121.816 262.582 120.398 264.064L119.045 265.547H80.1152C55.9453 265.547 40.7344 265.289 39.9609 264.902C39.3164 264.58 38.4785 263.355 38.0918 262.26C37.125 259.553 37.125 219.27 38.0273 216.82C39.3809 213.275 37.8984 213.404 79.8574 213.34H118.852L120.334 214.758Z" fill="#00B9E4"/>
<path d="M148.887 85.0781V90.8789H154.365H159.844V85.0781V79.2773H154.365H148.887V85.0781Z" fill="#00B9E4"/>
<path d="M94.4238 86.3027C88.752 88.8809 85.1426 94.4238 85.0781 100.547C85.0781 105.51 85.9805 108.281 88.752 111.504C98.5488 122.977 117.24 116.209 117.305 101.191C117.305 94.5527 112.213 87.334 106.412 85.7227C102.803 84.6914 97.2598 84.9492 94.4238 86.3027ZM104.543 97.7109C108.023 100.934 104.027 107.314 99.5801 105.703C97.8398 105.059 96.873 103.834 96.3574 101.707C95.9707 100.289 96.293 99.5801 97.9043 97.9043C99.5801 96.293 100.289 95.9707 101.707 96.3574C102.674 96.5508 103.898 97.1953 104.543 97.7109Z" fill="#00B9E4"/>
<path d="M191.426 107.766L191.361 120.205L180.791 133.418L170.156 146.631V223.523V300.352L181.951 315.176L193.682 329.936H250.143L306.604 330L318.27 315.305L329.936 300.674L330 223.588V146.438L319.365 133.16L308.73 119.883V107.637V95.3906H250.078H191.426V107.766ZM297.773 111.826V116.66H292.295H286.816V122.461V128.262H293.777H300.738L306.668 135.674L312.598 143.086H250.336C216.111 143.086 188.203 142.828 188.332 142.57C188.461 142.248 190.975 138.896 194.004 135.158L199.482 128.262H238.348H277.148V122.461V116.66H239.766H202.383V111.826V106.992H250.078H297.773V111.826ZM319.043 223.652V292.617H250.078H181.113V223.652V154.688H250.078H319.043V223.652ZM312.146 304.412C311.889 304.928 309.182 308.408 306.152 312.146L300.674 319.043H250.271H199.869L194.584 312.404C191.684 308.795 188.848 305.314 188.332 304.67C187.43 303.639 190.395 303.574 250.014 303.574C302.156 303.574 312.598 303.703 312.146 304.412Z" fill="#00B9E4"/>
<path d="M205.863 171.703C204.059 172.541 201.674 174.346 200.578 175.699C196.453 180.662 196.518 179.889 196.711 224.684C196.904 263.291 196.969 265.354 198.129 267.738C199.74 270.961 202.77 273.99 205.992 275.602C208.377 276.762 210.439 276.826 248.725 277.02C293.004 277.213 293.197 277.213 297.902 273.281C299.191 272.25 300.996 269.865 301.898 267.996L303.574 264.645V223.717V182.725L302.027 179.502C300.223 175.635 297.773 173.25 293.906 171.51C291.07 170.221 289.846 170.156 250.078 170.156H209.15L205.863 171.703ZM290.812 182.918L292.295 184.4L292.488 221.59C292.617 242.021 292.488 259.746 292.295 260.906C292.102 262.066 291.328 263.613 290.619 264.322C289.459 265.482 288.17 265.547 250.271 265.547H211.148L209.666 264.129L208.184 262.775V223.91C208.184 202.576 208.377 184.594 208.57 184.014C209.666 181.242 211.02 181.113 251.174 181.307L289.33 181.436L290.812 182.918Z" fill="#00B9E4"/>
<path d="M244.342 190.91C244.02 191.748 241.119 199.031 237.896 207.152C234.609 215.273 232.031 221.977 232.16 222.041C232.289 222.17 236.93 223.395 242.537 224.813C248.145 226.23 252.85 227.52 253.043 227.648C253.172 227.842 251.367 233.578 249.111 240.475C246.791 247.371 245.051 253.301 245.18 253.623C245.437 254.332 255.041 257.619 255.492 257.104C255.621 256.975 258.393 248.725 261.68 238.799C264.967 228.873 267.803 220.43 267.932 220.107C268.061 219.721 263.742 218.367 258.006 216.949C252.398 215.596 247.693 214.371 247.564 214.242C247.436 214.113 249.176 209.537 251.367 203.994C253.687 198.258 255.17 193.682 254.848 193.359C254.203 192.779 246.275 189.492 245.437 189.492C245.115 189.492 244.664 190.137 244.342 190.91Z" fill="#00B9E4"/>
<path d="M217.852 196.904V202.383H223.652H229.453V196.904V191.426H223.652H217.852V196.904Z" fill="#00B9E4"/>
<path d="M271.348 196.904V202.383H276.826H282.305V196.904V191.426H276.826H271.348V196.904Z" fill="#00B9E4"/>
<path d="M217.852 250.078V255.879H223.652H229.453V250.078V244.277H223.652H217.852V250.078Z" fill="#00B9E4"/>
<path d="M271.348 250.078V255.879H276.826H282.305V250.078V244.277H276.826H271.348V250.078Z" fill="#00B9E4"/>
</svg>
