<svg width="83" height="70" viewBox="0 0 83 70" fill="none" xmlns="http://www.w3.org/2000/svg">
<path d="M20.3889 51.2117V67.2117M20.3889 67.2117C20.5792 66.5122 3.14666 68.2643 2.88888 67.2117C2.63109 66.159 0.888877 26.2117 2.88888 26.2117C4.88888 26.2117 28.3889 24.7117 29.8889 26.7117C31.3889 28.7117 30.3086 60.7117 30.3086 60.7117M20.3889 67.2117C27.5 68 30.2163 67.8713 30.3889 67.2117C30.5614 66.552 30.3086 60.7117 30.3086 60.7117M20.3889 43.7117V45.2117M29.9259 29.7117C38.9578 24.0497 42.9087 20.1191 47.8889 11.7117C47.8889 11.7117 49.5 5.49999 50.8889 3.21167C52.2778 0.923353 57.5 0.999987 58.3889 3.21167C59.2778 5.42335 59.2778 13.4233 58.3889 17.2117C57.5 21 52.3889 26.2117 53.8889 26.2117C55.3889 26.2117 76.3889 26.2117 76.3889 26.2117C78.2823 26.2584 80.3889 28 80.3889 29.7117C80.3889 31.4233 80.3889 31.2117 80.3889 33.2117C80.3889 35.2117 77.8889 36.7117 77.8889 36.7117M77.8889 36.7117H69.8889M77.8889 36.7117L80.3889 39.2117C80.8348 41.1949 80.3889 43.7117 80.3889 43.7117L77.8889 46.7117M77.8889 46.7117C77.8889 46.7117 64.8889 46.7117 70.8889 46.7117M77.8889 46.7117L80.3889 50.2117C80.3889 50.2117 80.3889 51.2117 80.3889 52.7117C80.3889 54.2117 77.8889 56.7117 77.8889 56.7117M77.8889 56.7117C77.8889 56.7117 65.8889 56.7117 70.8889 56.7117M77.8889 56.7117C77.8889 56.7117 80.3889 59.2117 80.3889 60.7117C80.3889 62.2117 80.3889 63.7117 80.3889 63.7117C79.4726 65.9504 78.5176 66.61 76.3889 67.2117C61.9395 67.2117 41.3889 67.2117 39.3889 67.2117C37.3889 67.2117 32.9313 64.063 30.3086 60.7117" stroke="#00B9E4" stroke-width="3"/>
</svg>
