<svg width="75" height="81" viewBox="0 0 75 81" fill="none" xmlns="http://www.w3.org/2000/svg">
<path d="M36 6H31V2H46V6H40.5V9.5L46.5 10.5L50.5 11.5C54.6377 13.4653 59.1815 16.1065 63 21M30 79H38C39.8897 78.9119 41.5808 78.7288 46.5 78C50.5239 77.1871 52.1227 76.2146 55 74.5C54.9508 74.6025 67 65.5 70 56C73 46.5 71.5 36.125 69 30.5C66.5 24.875 63 21 63 21M63 21C64.4857 19.1411 65.2836 15.7063 65.5 16M65.5 16L64 13C65.0601 10.4916 66.0425 9.66587 68 8.5C70.6649 10.2211 71.7359 11.4392 73 14C71.9247 16.3319 71.0402 17.0799 69 17.5L65.5 16ZM36 43.5C39 38 54 30.5 54 30.5C54 30.5 46.5 47 42 49C37.5 51 33 49 36 43.5Z" stroke="#00B9E4" stroke-width="3"/>
<path d="M34.5 5.5V10H29.5H37.5M43 10H37.5M37.5 10L38 14M54.5 14L52.5 19M66 27.5L63 30M71.5 44.5H66.5M66.5 62.5L62 58.5M54.5 75L52.5 70M37.5 79V74" stroke="#00B9E4" stroke-width="3"/>
<path d="M50 11V11.5" stroke="#00B9E4" stroke-width="3"/>
<rect x="18" y="19.5" width="9" height="2" fill="#00B9E4"/>
<rect x="12" y="28.5" width="14" height="2" fill="#00B9E4"/>
<rect x="6" y="37.5" width="21" height="2" fill="#00B9E4"/>
<rect x="6" y="56.5" width="21" height="2" fill="#00B9E4"/>
<rect x="17" y="66.5" width="10" height="2" fill="#00B9E4"/>
<rect y="47.5" width="27" height="2" fill="#00B9E4"/>
</svg>
