<svg width="256" height="256" viewBox="0 0 256 256" fill="none" xmlns="http://www.w3.org/2000/svg">
<path d="M138 54L100 44.5M100 44.5L41.5 60.5V211.5L100 196V44.5Z" stroke="#00B9E4" stroke-width="7"/>
<path d="M100 196L160 212.5M160 212.5V105.5M160 212.5L220 195V105.5" stroke="#00B9E4" stroke-width="7"/>
<path d="M186.15 21.5238C176.05 23.5238 166.85 31.1238 162.25 41.1238C160.05 45.9238 159.75 47.6238 160.15 54.8238C160.85 66.4238 163.15 70.2238 178.85 85.9238L191.95 98.9238L204.85 86.0238C212.25 78.6238 219.05 70.9238 220.65 68.0238C223.15 63.4238 224 61.5 224 53C224 44.3 223.15 43.4238 220.45 38.5238C213.65 26.2238 198.95 18.9238 186.15 21.5238ZM199.25 33.0238C205.25 35.0238 211.25 41.7238 212.85 48.0238C216.25 61.5238 205.95 74.4238 191.75 74.4238C182.05 74.4238 174.15 68.4238 171.35 58.8238C169.15 51.1238 170.65 45.0238 176.35 38.8238C182.75 31.8238 190.25 29.9238 199.25 33.0238Z" fill="#00B9E4"/>
<path d="M186.84 41.0074C177.94 45.0074 177.64 58.7074 186.44 63.4074C190.04 65.4074 197.94 64.4074 200.84 61.6074C206.24 56.5074 205.94 46.6074 200.24 42.4074C196.84 39.9074 190.64 39.2074 186.84 41.0074Z" fill="#00B9E4"/>
</svg>
