<svg width="68" height="44" viewBox="0 0 68 44" fill="none" xmlns="http://www.w3.org/2000/svg">
<path d="M0 6.304V4.6H14.256V7.696L11.124 7.264V6.304H4.92V11.296H11.124V10.336L14.256 9.904V13H1.788V6.304H0ZM16.2909 13V9.82L24.0309 8.86V8.2H19.2909V8.74L16.2909 9.04V6.64H27.0309V13H24.8829L24.2709 12.4L23.6709 13H16.2909ZM19.2909 11.44H24.0309V10.312L19.2909 10.9V11.44Z" fill="white"/>
<path d="M28.28 37.2V30.84H31.28V34.56L36.14 32.688V30.84H39.14V31.536L40.64 30.96V32.82L39.14 33.396V37.2H36.14V34.548L31.28 36.42V37.2H28.28ZM32.06 31.02V29.46L33.32 28.98V27.96H36.32V29.4L32.06 31.02ZM40.6414 35.58V33.432L42.4294 32.952V28.8H45.5614V32.1L51.6934 30.444V28.8H54.8254V31.752L49.9894 33.06L52.8214 35.4H54.8974V37.2H50.9614L47.0134 33.852L45.5614 34.248V37.2H42.4294V35.1L40.6414 35.58ZM56.8152 37.2V34.02L64.5552 33.06V32.4H59.8152V32.94L56.8152 33.24V30.84H67.5552V37.2H65.4072L64.7952 36.6L64.1952 37.2H56.8152ZM59.8152 35.64H64.5552V34.512L59.8152 35.1V35.64Z" fill="white"/>
<path d="M13.7286 25.2V17.192L20.7136 19.249L27.6876 17.192V25.2H23.8816V23.638H24.8166V19.876L22.1436 20.635V25.2H19.2726V20.635L16.5996 19.876V23.638H17.5346V25.2H13.7286ZM28.0699 25.2V17.5H39.4989V25.2H28.0699ZM30.9409 23.638H36.6279V19.062H30.9409V23.638Z" fill="#00B9E4"/>
</svg>
